<svg style="object-fit:cover" id="my-svg" version="1" baseProfile="full" width="100%" height="100%" viewBox="0 0 1920 961" xmlns="http://www.w3.org/2000/svg"><rect width="1920" height="961" fill="#00eeff"/><defs><linearGradient id="linear-gradient" x1="0" x2="1" y1="0" y2="1"><stop offset="0%" stop-color="#000c3d50"/><stop offset="100%" stop-color="#005fdb50"/></linearGradient></defs><path transform="scale(1, 1)" d="M 0,961 V 0,96 C 54.49434808812114,102.40723473638114 108.98869617624229,108.81446947276228 148,105 C 187.01130382375771,101.18553052723772 210.53956338315191,87.14935684533204 252,95 C 293.4604366168481,102.85064315466796 352.8530502911501,132.5881031459096 411,131 C 469.1469497088499,129.4118968540904 526.0482354522475,96.4982305710295 569,86 C 611.9517645477525,75.5017694289705 640.95400789986,87.41897456997245 685,99 C 729.04599210014,110.58102543002755 788.1357329483126,121.8258711490807 835,116 C 881.8642670516874,110.1741288509193 916.5030603068893,87.27754083370472 956,80 C 995.4969396931107,72.72245916629528 1039.8520258241306,81.06396551610037 1090,84 C 1140.1479741758694,86.93603448389963 1196.088836396589,84.46659710189378 1238,93 C 1279.911163603411,101.53340289810622 1307.7926285895148,121.06964607632452 1348,130 C 1388.2073714104852,138.93035392367548 1440.740649245351,137.25481859280808 1492,124 C 1543.259350754649,110.74518140719192 1593.2447744290812,85.91107955244318 1645,75 C 1696.7552255709188,64.08892044755682 1750.2802530383244,67.10086319741916 1806,73 C 1861.7197469616756,78.89913680258084 1919.6342134176216,87.68546765788022 1939,92 C 1958.3657865823784,96.31453234211978 1939.1828932911892,96.15726617105989 1920,96 C 1920,96 1920,961 1920,961 Z" stroke="none" stroke-width="0" fill="url(#linear-gradient)" class="transition-all duration-300 ease-in-out delay-150" style="transform-origin: center center;"/><defs><linearGradient id="linear-gradient" x1="0" x2="1" y1="0" y2="1"><stop offset="0%" stop-color="#000c3d60"/><stop offset="100%" stop-color="#005fdb60"/></linearGradient></defs><path transform="scale(1, 1)" d="M 0,961 V 0,144 C 34.40053435530841,140.75723932550193 68.80106871061682,137.51447865100386 116,139 C 163.19893128938318,140.48552134899614 223.1962595128412,146.69932472148648 278,146 C 332.8037404871588,145.30067527851352 382.4138932380183,137.68822246305027 430,131 C 477.5861067619817,124.31177753694973 523.1481675350853,118.54778542631246 568,126 C 612.8518324649147,133.45221457368754 656.9934366216403,154.12063583169996 702,163 C 747.0065633783597,171.87936416830004 792.8780859783534,168.96967124688763 835,166 C 877.1219140216466,163.03032875311237 915.4942194649466,160.0006791807495 963,144 C 1010.5057805350534,127.99932081925049 1067.145036161861,99.0276120301143 1113,108 C 1158.854963838139,116.9723879698857 1193.9256358876094,163.88887269879328 1240,175 C 1286.0743641123906,186.11112730120672 1343.1524202877017,161.4168971747127 1383,152 C 1422.8475797122983,142.5831028252873 1445.4646829615826,148.443538602356 1494,148 C 1542.5353170384174,147.556461397644 1616.9888478659677,140.80894841586337 1659,139 C 1701.0111521340323,137.19105158413663 1710.579925574547,140.32066773419064 1762,147 C 1813.420074425453,153.67933226580936 1906.6914498358435,163.9083806473741 1940,164 C 1973.3085501641565,164.0916193526259 1946.6542750820781,154.04580967631296 1920,144 C 1920,144 1920,961 1920,961 Z" stroke="none" stroke-width="0" fill="url(#linear-gradient)" class="transition-all duration-300 ease-in-out delay-150" style="transform-origin: center center;"/><defs><linearGradient id="linear-gradient" x1="0" x2="1" y1="0" y2="1"><stop offset="0%" stop-color="#000c3d70"/><stop offset="100%" stop-color="#005fdb70"/></linearGradient></defs><path transform="scale(1, 1)" d="M 0,961 V 0,216 C 56.90055604808923,204.42546171096387 113.80111209617846,192.85092342192777 158,190 C 202.19888790382154,187.14907657807223 233.69610766337536,193.02176802325278 274,197 C 314.30389233662464,200.97823197674722 363.4144572503202,203.06200448506115 410,197 C 456.5855427496798,190.93799551493885 500.6460633353438,176.73021403650256 551,186 C 601.3539366646562,195.26978596349744 658.0012894083046,228.01713936892855 697,245 C 735.9987105916954,261.98286063107145 757.3487790314376,263.20122848778317 804,242 C 850.6512209685624,220.79877151221686 922.6035944659448,177.17794667993886 976,181 C 1029.3964055340552,184.82205332006114 1064.2368431047832,236.08698479246152 1109,241 C 1153.7631568952168,245.91301520753848 1208.4490331149225,204.47411415021506 1247,203 C 1285.5509668850775,201.52588584978494 1307.9670244355277,240.01655860667816 1356,243 C 1404.0329755644723,245.98344139332184 1477.6828691429664,213.45965142307242 1521,207 C 1564.3171308570336,200.54034857692758 1577.3014989926069,220.14483570103215 1623,215 C 1668.6985010073931,209.85516429896785 1747.111134886606,179.96100577279904 1805,182 C 1862.888865113394,184.03899422720096 1900.2539614609695,218.0111412077717 1916,229 C 1931.7460385390305,239.9888587922283 1925.8730192695152,227.99442939611416 1920,216 C 1920,216 1920,961 1920,961 Z" stroke="none" stroke-width="0" fill="url(#linear-gradient)" class="transition-all duration-300 ease-in-out delay-150" style="transform-origin: center center;"/><defs><linearGradient id="linear-gradient" x1="0" x2="1" y1="0" y2="1"><stop offset="0%" stop-color="#000c3d80"/><stop offset="100%" stop-color="#005fdb80"/></linearGradient></defs><path transform="scale(1, 1)" d="M 0,961 V 0,324 C 35.602374074730804,330.87370512286 71.20474814946161,337.74741024571995 117,335 C 162.7952518505384,332.25258975428005 218.78338147688447,319.8840641399803 268,316 C 317.2166185231155,312.1159358600197 359.6617259430004,316.7163331943589 403,310 C 446.3382740569996,303.2836668056411 490.5697147511138,285.2506030825839 542,295 C 593.4302852488862,304.7493969174161 652.0594150525444,342.2812544753056 694,347 C 735.9405849474556,351.7187455246944 761.1926250387086,323.62437901619376 798,318 C 834.8073749612914,312.37562098380624 883.1700847926214,329.2212294599192 941,336 C 998.8299152073786,342.7787705400808 1066.1270357908063,339.49070314412967 1116,337 C 1165.8729642091937,334.50929685587033 1198.3217720441532,332.8159579635622 1235,341 C 1271.6782279558468,349.1840420364378 1312.5858760325807,367.24546500162137 1355,359 C 1397.4141239674193,350.75453499837863 1441.334723825524,316.2021820299524 1495,311 C 1548.665276174476,305.7978179700476 1612.0752286653235,329.94580687856944 1661,343 C 1709.9247713346765,356.05419312143056 1744.3643615131818,358.0145904557698 1791,347 C 1837.6356384868182,335.9854095442302 1896.467325281948,311.99583129835145 1920,306 C 1943.532674718052,300.00416870164855 1931.766337359026,312.00208435082425 1920,324 C 1920,324 1920,961 1920,961 Z" stroke="none" stroke-width="0" fill="url(#linear-gradient)" class="transition-all duration-300 ease-in-out delay-150" style="transform-origin: center center;"/><defs><linearGradient id="linear-gradient" x1="0" x2="1" y1="0" y2="1"><stop offset="0%" stop-color="#000c3d90"/><stop offset="100%" stop-color="#005fdb90"/></linearGradient></defs><path transform="scale(1, 1)" d="M 0,961 V 0,486 C 35.25028539037079,478.64749755083346 70.50057078074158,471.294995101667 113,477 C 155.49942921925842,482.705004898333 205.2480022674045,501.46751714416564 254,493 C 302.7519977325955,484.53248285583436 350.50742014964044,448.83493632167017 395,452 C 439.49257985035956,455.16506367832983 480.7223171340336,497.1927375691535 525,499 C 569.2776828659664,500.8072624308465 616.6033113142253,462.39411340171597 666,459 C 715.3966886857747,455.60588659828403 766.8644376090657,487.23080882398233 808,487 C 849.1355623909343,486.76919117601767 879.9389382495117,454.6826513023542 935,456 C 990.0610617504883,457.3173486976458 1069.3798093928872,492.038585966601 1113,509 C 1156.6201906071128,525.961414033399 1164.541824178939,525.163004831242 1210,519 C 1255.458175821061,512.836995168758 1338.4528938913575,501.30939470843106 1395,495 C 1451.5471061086425,488.69060529156894 1481.6466002556308,487.59941633503377 1514,492 C 1546.3533997443692,496.40058366496623 1580.9607050861196,506.2929399514343 1627,503 C 1673.0392949138804,499.7070600485657 1730.510579399891,483.2288238592292 1782,479 C 1833.489420600109,474.7711761407708 1878.9969773143166,482.7917646116488 1901,486 C 1923.0030226856834,489.2082353883512 1921.5015113428417,487.6041176941756 1920,486 C 1920,486 1920,961 1920,961 Z" stroke="none" stroke-width="0" fill="url(#linear-gradient)" class="transition-all duration-300 ease-in-out delay-150" style="transform-origin: center center;"/><defs><linearGradient id="linear-gradient" x1="0" x2="1" y1="0" y2="1"><stop offset="0%" stop-color="#000c3dff"/><stop offset="100%" stop-color="#005fdbff"/></linearGradient></defs><path transform="scale(1, 1)" d="M 0,961 V 0,729 C 38.93165729787731,729.1613058935402 77.86331459575462,729.3226117870803 125,723 C 172.13668540424538,716.6773882129197 227.47839891485893,703.8708587452188 280,704 C 332.52160108514107,704.1291412547812 382.22308974480967,717.1939532320442 432,733 C 481.77691025519033,748.8060467679558 531.6292421059022,767.3533283266048 568,763 C 604.3707578940978,758.6466716733952 627.2599418315818,731.3927334615366 677,723 C 726.7400581684182,714.6072665384634 803.3309905677708,725.0757378272486 846,731 C 888.6690094322292,736.9242621727514 897.4160958973353,738.3043152294687 937,732 C 976.5839041026647,725.6956847705313 1047.0046258428886,711.7070012548769 1102,713 C 1156.9953741571114,714.2929987451231 1196.5654007311102,730.8676797510236 1239,738 C 1281.4345992688898,745.1323202489764 1326.7337712326707,742.8222797410284 1370,749 C 1413.2662287673293,755.1777202589716 1454.499514338207,769.8432012848625 1505,758 C 1555.500485661793,746.1567987151375 1615.268171414501,707.8049151195214 1666,696 C 1716.731828585499,684.1950848804786 1758.4278000037882,698.937138237052 1805,718 C 1851.5721999962118,737.062861762948 1903.0206285703462,760.4465319322708 1923,763 C 1942.9793714296538,765.5534680677292 1931.489685714827,747.2767340338646 1920,729 C 1920,729 1920,961 1920,961 Z" stroke="none" stroke-width="0" fill="url(#linear-gradient)" class="transition-all duration-300 ease-in-out delay-150" style="transform-origin: center center;"/></svg>