<svg width="1000" height="600" xmlns="http://www.w3.org/2000/svg"><defs><linearGradient id="a" gradientTransform="rotate(90)"><stop offset="5%" stop-color="#02bee8"/><stop offset="95%" stop-color="#41ceed"/></linearGradient><linearGradient id="b" gradientTransform="rotate(90)"><stop offset="5%" stop-color="#02a2d1"/><stop offset="95%" stop-color="#41b9dc"/></linearGradient><linearGradient id="c" gradientTransform="rotate(90)"><stop offset="5%" stop-color="#0185ba"/><stop offset="95%" stop-color="#40a3cb"/></linearGradient><linearGradient id="d" gradientTransform="rotate(90)"><stop offset="5%" stop-color="#0169a3"/><stop offset="95%" stop-color="#408eba"/></linearGradient><linearGradient id="e" gradientTransform="rotate(90)"><stop offset="5%" stop-color="#004c8c"/><stop offset="95%" stop-color="#3f78a8"/></linearGradient><linearGradient id="f" gradientTransform="rotate(90)"><stop offset="5%" stop-color="#003e7b"/><stop offset="95%" stop-color="#3f6e9c"/></linearGradient><linearGradient id="g" gradientTransform="rotate(90)"><stop offset="5%" stop-color="#003069"/><stop offset="95%" stop-color="#3f638e"/></linearGradient><linearGradient id="h" gradientTransform="rotate(90)"><stop offset="5%" stop-color="#002358"/><stop offset="95%" stop-color="#3f5a81"/></linearGradient><linearGradient id="i" gradientTransform="rotate(90)"><stop offset="5%" stop-color="#001546"/><stop offset="95%" stop-color="#3f4f74"/></linearGradient><linearGradient id="j" gradientTransform="rotate(90)"><stop offset="5%" stop-color="#000735"/><stop offset="95%" stop-color="#3f4567"/></linearGradient></defs><path fill="#03dbff" d="M0 0h1000v600H0z"/><path d="M0 54c53.599-.894 107.197-1.788 163-1s113.81 3.257 171 3c57.19-.257 113.562-3.24 168-4 54.438-.76 106.942.704 161 1 54.058.296 109.67-.574 173-1 63.33-.426 134.38-.407 163 0 28.62.407 14.81 1.204 41 2l-40 546H0Z" fill="url(#a)"/><path d="M0 109c54.095-.68 108.19-1.36 163-1 54.81.36 110.333 1.761 166 1 55.667-.761 111.477-3.685 169-3 57.523.685 116.759 4.977 171 5 54.241.023 103.488-4.225 166-5 62.512-.775 138.29 1.921 168 3 29.71 1.079 13.355.54 37 0l-40 491H0Z" fill="url(#b)"/><path d="M0 163c56.568.342 113.136.684 169 1 55.864.316 111.024.605 166 1s109.767.896 165 0c55.233-.896 110.908-3.189 165-4 54.092-.811 106.602-.142 169 1 62.398 1.142 134.685 2.755 164 3 29.315.245 15.657-.877 42-2l-40 437H0Z" fill="url(#c)"/><path d="M0 218c55.76.443 111.521.886 166 1 54.479.114 107.675-.102 164-1s115.778-2.478 173-2c57.222.478 112.214 3.015 165 4 52.786.985 103.365.42 166-1 62.635-1.42 137.324-3.691 167-4 29.676-.309 14.338 1.346 39 3l-40 382H0Z" fill="url(#d)"/><path d="M0 272c53.754-.625 107.509-1.25 163-1s112.719 1.372 169 1c56.281-.372 111.617-2.238 168-2 56.383.238 113.814 2.58 168 3 54.186.42 105.127-1.079 168-2 62.873-.921 137.678-1.263 167-1 29.322.263 13.161 1.132 37 2l-40 328H0Z" fill="url(#e)"/><path d="M0 327c54.841.93 109.683 1.86 166 2 56.317.14 114.11-.512 170-1s109.877-.813 166-1c56.123-.187 114.384-.236 168 0s102.589.756 165 0 138.26-2.787 168-3c29.74-.213 13.37 1.394 37 3l-40 273H0Z" fill="url(#f)"/><path d="M0 381c54.54-.08 109.078-.16 164 0s110.226.563 165 1c54.774.437 109.017.91 167 0 57.983-.91 119.707-3.203 174-3 54.293.203 101.156 2.9 163 3 61.844.1 138.67-2.4 169-3 30.33-.6 14.165.7 38 2l-40 219H0Z" fill="url(#g)"/><path d="M0 436c56.813 1.397 113.626 2.795 170 2 56.374-.795 112.307-3.782 166-4 53.693-.218 105.144 2.334 160 3 54.856.666 113.116-.553 169-1 55.884-.447 109.392-.12 171 0 61.608.12 131.317.034 160 0 28.683-.034 16.342-.017 44 0l-40 164H0Z" fill="url(#h)"/><path d="M0 490c55.54-.21 111.082-.42 166 0 54.918.42 109.214 1.472 164 1s110.061-2.466 167-2c56.939.466 115.54 3.393 169 3 53.46-.393 101.778-4.106 164-4 62.222.106 138.35 4.03 169 5 30.65.97 15.825-1.015 41-3l-40 110H0Z" fill="url(#i)"/><path d="M0 545c56.903-.344 113.805-.688 170-1 56.195-.312 111.682-.59 167-1 55.318-.41 110.466-.95 166 0 55.534.95 111.452 3.389 164 4 52.548.611 101.724-.605 165-1 63.276-.395 140.65.03 171 0 30.35-.03 13.675-.515 37-1l-40 55H0Z" fill="url(#j)"/></svg>