<svg width="1000" height="600" xmlns="http://www.w3.org/2000/svg"><defs><linearGradient id="a" gradientTransform="rotate(90)"><stop offset="5%" stop-color="#02c8ef"/><stop offset="95%" stop-color="#41d5f3"/></linearGradient><linearGradient id="b" gradientTransform="rotate(90)"><stop offset="5%" stop-color="#02b4e0"/><stop offset="95%" stop-color="#41c6e7"/></linearGradient><linearGradient id="c" gradientTransform="rotate(90)"><stop offset="5%" stop-color="#01a1d0"/><stop offset="95%" stop-color="#40b8db"/></linearGradient><linearGradient id="d" gradientTransform="rotate(90)"><stop offset="5%" stop-color="#018dc1"/><stop offset="95%" stop-color="#40a9d0"/></linearGradient><linearGradient id="e" gradientTransform="rotate(90)"><stop offset="5%" stop-color="#007ab1"/><stop offset="95%" stop-color="#3f9bc4"/></linearGradient><linearGradient id="f" gradientTransform="rotate(90)"><stop offset="5%" stop-color="#006ca8"/><stop offset="95%" stop-color="#3f90bd"/></linearGradient><linearGradient id="g" gradientTransform="rotate(90)"><stop offset="5%" stop-color="#005da0"/><stop offset="95%" stop-color="#3f85b7"/></linearGradient><linearGradient id="h" gradientTransform="rotate(90)"><stop offset="5%" stop-color="#004f97"/><stop offset="95%" stop-color="#3f7bb1"/></linearGradient><linearGradient id="i" gradientTransform="rotate(90)"><stop offset="5%" stop-color="#00408f"/><stop offset="95%" stop-color="#3f6fab"/></linearGradient><linearGradient id="j" gradientTransform="rotate(90)"><stop offset="5%" stop-color="#003286"/><stop offset="95%" stop-color="#3f65a4"/></linearGradient></defs><path fill="#03dbff" d="M0 0h1000v600H0z"/><path d="M0 54c57.141-1.977 114.282-3.955 170-3 55.718.955 110.013 4.841 165 5 54.987.159 110.665-3.41 166-4 55.335-.59 110.327 1.8 165 3s109.027 1.207 171 1c61.973-.207 131.564-.63 160-1 28.436-.37 15.718-.685 43-1l-40 546H0Z" fill="url(#a)"/><path d="M0 109c53.355-.86 106.71-1.72 163-2 56.29-.28 115.513.021 172 1 56.487.979 110.238 2.635 166 3 55.762.365 113.534-.562 168-1 54.466-.438 105.625-.387 167-1s132.964-1.89 162-2c29.036-.11 15.518.945 42 2l-40 491H0Z" fill="url(#b)"/><path d="M0 163c52.973.727 105.945 1.454 163 1 57.055-.454 118.192-2.088 174-3 55.808-.912 106.288-1.1 161 0s113.655 3.49 168 4c54.345.51 104.093-.863 166-2s135.973-2.04 166-2c30.027.04 16.013 1.02 42 2l-40 437H0Z" fill="url(#c)"/><path d="M0 218c56.746-1.891 113.492-3.783 169-3 55.508.783 109.779 4.24 165 5 55.221.76 111.394-1.178 167-2 55.606-.822 110.647-.53 163-1 52.353-.47 102.018-1.704 166-2 63.982-.296 142.28.344 173 1s13.86 1.328 37 2l-40 382H0Z" fill="url(#d)"/><path d="M0 272c55.44-.797 110.878-1.594 167-1 56.122.594 112.926 2.579 168 3 55.074.421 108.418-.721 164-1 55.582-.279 113.404.307 167 0 53.596-.307 102.968-1.506 165-2s136.723-.284 167 0c30.277.284 16.138.642 42 1l-40 328H0Z" fill="url(#e)"/><path d="M0 327c56.734.35 113.467.7 169 0s109.865-2.453 165-2c55.135.453 111.072 3.11 168 3 56.928-.11 114.847-2.988 168-3 53.153-.012 101.541 2.843 164 4s138.988.616 169 0 13.506-1.308 37-2l-40 273H0Z" fill="url(#f)"/><path d="M0 381c53.2.972 106.4 1.944 163 2 56.6.056 116.6-.805 172-2 55.4-1.195 106.201-2.723 161-2 54.799.723 113.596 3.7 169 4 55.404.3 107.417-2.073 169-2 61.583.073 132.738 2.592 162 3 29.262.408 16.63-1.296 44-3l-40 219H0Z" fill="url(#g)"/><path d="M0 436c56.523.279 113.045.558 169 0s111.342-1.953 166-2c54.658-.047 108.588 1.252 164 2 55.412.748 112.306.943 167 0s107.187-3.023 170-3c62.813.023 135.947 2.15 165 3 29.053.85 14.027.425 39 0l-40 164H0Z" fill="url(#h)"/><path d="M0 490c54.876-.815 109.753-1.63 165-1 55.247.63 110.865 2.704 167 3 56.135.296 112.788-1.186 169-2 56.212-.814 111.985-.96 165 0s103.273 3.028 166 3c62.727-.028 137.922-2.15 168-3 30.078-.85 15.039-.425 40 0l-40 110H0Z" fill="url(#i)"/><path d="M0 545c53.318-1.135 106.635-2.27 163-2 56.365.27 115.777 1.945 171 3s106.256 1.49 162 1 116.2-1.905 171-2c54.8-.095 103.946 1.128 167 2 63.054.872 140.015 1.392 170 1 29.985-.392 12.992-1.696 36-3l-40 55H0Z" fill="url(#j)"/></svg>